<svg width="268" height="79" viewBox="0 0 268 79" fill="none" xmlns="http://www.w3.org/2000/svg">
<g clip-path="url(#clip0_2_48)">
<path d="M66.206 10.1048C66.206 10.1048 67.1135 16.0397 60.7391 22.3279C55.6879 27.3106 57.497 33.7605 57.497 33.7605L64.4918 35.5471C64.4918 35.5471 67.8587 32.2334 68.7105 24.8165C69.5397 17.5965 66.2614 10.5135 66.2061 10.1046L66.206 10.1048Z" fill="#FFE680"/>
<path d="M44.2782 13.0109C44.2782 13.0109 48.0772 17.3246 47.0855 25.6171C46.2996 32.188 52.106 36.5659 52.106 36.5659L59.0224 34.5673C59.0224 34.5673 59.6833 30.1282 55.2713 23.7095C51.2633 17.8788 44.5976 13.3178 44.2782 13.0111V13.0109Z" fill="#FFE680"/>
<path d="M35.6613 20.1132C35.6613 20.1132 35.5818 24.2066 38.836 32.0608C41.4148 38.2843 48.849 40.0959 48.849 40.0959L54.0943 35.74C54.0943 35.74 53.8575 28.4305 45.2732 27.319C38.8772 26.4909 36.1031 20.2729 35.6613 20.1137V20.1132Z" fill="#FFE680"/>
<path d="M21.8622 38.6534C21.8622 38.6534 29.2296 38.5539 35.5935 42.5102C41.8253 46.3846 48.8851 45.382 48.8851 45.382L51.0202 39.391C51.0202 39.391 47.2341 35.5581 38.554 35.6864C27.856 35.8444 22.3385 38.6091 21.8622 38.6534Z" fill="#FFE680"/>
<path d="M39.8271 68.28C39.8271 68.28 40.8684 64.4528 49.7883 61.1598C56.8567 58.5503 58.4844 52.0648 58.4844 52.0648L53.0838 47.8511C53.0838 47.8511 46.0072 48.7279 43.8624 55.9499C42.2405 61.4113 39.9837 67.8917 39.8271 68.2795V68.28Z" fill="#FFE680"/>
<path d="M26.6186 52.3083C26.6186 52.3083 30.4478 53.9673 40.1471 54.3557C47.8329 54.6635 52.6012 49.4426 52.6012 49.4426L49.8904 43.6258C49.8904 43.6258 43.0799 41.7568 37.4715 47.4457C33.2302 51.7479 26.9563 52.0181 26.6173 52.3089L26.6186 52.3083Z" fill="#FFE680"/>
<path d="M52.1034 67.9238C52.1034 67.9238 59.1599 63.9719 59.2247 61.951C59.4367 55.348 60.222 50.2154 60.222 50.2154L52.9796 49.4456C52.9796 49.4456 49.6089 50.1444 52.7065 57.1067C55.049 62.3719 51.9703 67.5285 52.1035 67.9235L52.1034 67.9238Z" fill="#FFE680"/>
<path d="M87.0241 58.8693C87.0241 58.8693 86.676 55.4544 81.2754 48.5269C76.9959 43.0375 69.2711 42.8482 69.2711 42.8482L65.4319 48.1762C65.4319 48.1762 67.7287 53.9892 76.3912 54.4804C82.9421 54.8519 86.5503 58.8082 87.0241 58.8693Z" fill="#FFE680"/>
<path d="M79.5087 66.7355C79.5087 66.7355 75.3062 65.5305 74.665 57.2129C74.1568 50.6219 67.5778 47.1414 67.5778 47.1414L61.1493 50.107C61.1493 50.107 61.453 54.5151 66.9672 60.2714C71.9681 65.4918 79.1339 66.4793 79.5086 66.7355H79.5087Z" fill="#FFE680"/>
<path d="M94.0658 38.6463C94.0658 38.6463 87.3769 39.9763 82.4499 37.6254C75.7247 34.4164 68.7445 37.4887 68.7445 37.4887L68.2925 43.7418C68.2925 43.7418 73.5155 47.9337 81.4208 44.8535C87.399 42.5242 93.6144 38.7846 94.0656 38.6464L94.0658 38.6463Z" fill="#FFEEAA"/>
<path d="M83.5135 22.8247C83.5135 22.8247 83.453 24.1065 74.1726 26.5578C66.817 28.4995 64.3874 34.7979 64.3874 34.7979L69.2294 39.4854C69.2294 39.4854 74.3965 38.3679 79.411 32.2841C83.2258 27.6557 83.3081 23.1966 83.5123 22.8246L83.5135 22.8247Z" fill="#FFE680"/>
<path d="M78.9163 12.1976C78.9163 12.1976 79.5181 15.4049 69.6614 20.089C61.8506 23.8008 60.8415 31.4497 60.8415 31.4497L67.6422 35.7807C67.6422 35.7807 73.0239 33.3868 77.2023 25.5183C80.0127 20.2258 78.7878 12.6625 78.9163 12.1973V12.1976Z" fill="#FFD42A"/>
<path d="M55.7069 6C55.7069 6 58.1685 10.3194 53.2542 19.0222C49.3599 25.9188 53.6671 32.6702 53.6671 32.6702L62.1321 32.8474C62.1321 32.8474 67.5659 27.4657 63.0612 19.7315C59.6546 13.8823 55.9134 6.44324 55.7069 6.0003V6Z" fill="#FFCC00"/>
<path d="M39.8612 11.9996C39.8612 11.9996 41.3623 13.5658 41.2801 23.2375C41.2149 30.9016 48.4832 35.409 48.4832 35.409L56.2159 32.4468C56.2159 32.4468 58.4294 25.5829 50.4907 20.2601C44.4864 16.2361 40.2687 12.3247 39.8606 12.0001L39.8612 11.9996Z" fill="#FFD42A"/>
<path opacity="0.3" d="M51.1957 30.9265C50.0178 23.9215 44.7368 19.4089 44.7368 19.4089" stroke="url(#paint0_linear_2_48)" stroke-width="2"/>
<path d="M23.0533 23.4293C23.0533 23.4293 27.5343 25.0286 32.9141 33.5266C37.1772 40.2606 46.0787 41.186 46.0787 41.186L51.1759 35.3812C51.1759 35.3812 49.2439 28.455 39.2963 27.0949C31.7736 26.0663 23.5926 23.5432 23.0535 23.4292L23.0533 23.4293Z" fill="#FFDD55"/>
<path d="M27.2041 63.0889C27.2041 63.0889 28.5227 59.249 39.7705 58.6975C48.6836 58.2604 53.4568 51.7437 53.4568 51.7437L49.5162 45.3094C49.5162 45.3094 43.293 45.2977 35.718 50.9979C28.5393 56.4001 27.5548 62.7183 27.2044 63.0886L27.2041 63.0889Z" fill="#FFD42A"/>
<path d="M19.475 43.0828C19.475 43.0828 26.4125 45.6994 30.5813 47.3412C38.6957 50.5368 47.9502 46.7489 47.9502 46.7489L47.9887 39.6134C47.9887 39.6134 41.427 35.2554 32.6823 39.5474C26.0693 42.7931 19.9788 42.8811 19.475 43.0828Z" fill="#FFCC00"/>
<path d="M41.9687 69.9393C41.9687 69.9393 43.0291 68.3511 51.8488 62.3332C58.8379 57.5645 58.0572 51.703 58.0572 51.703L50.5158 48.3962C50.5158 48.3962 42.3714 48.8995 43.0623 57.5267C43.6382 64.7175 42.0055 69.4627 41.9681 69.9396L41.9687 69.9393Z" fill="#FFCC00"/>
<path d="M86.7907 66.0032C86.7907 66.0032 82.6269 65.0429 79.9409 55.6499C77.8124 48.2066 69.4775 45.3685 69.4775 45.3685L62.8286 49.8697C62.8286 49.8697 63.2532 58.6851 72.4711 62.1725C79.442 64.8092 86.302 65.7756 86.7907 66.0037V66.0032Z" fill="#FFDD55"/>
<path d="M68.0514 73.0012C68.0514 73.0012 65.2684 69.0271 68.4141 59.7399C70.9067 52.3804 65.6461 49.4734 65.6461 49.4734L57.2663 50.5168C57.2663 50.5168 52.9601 56.6043 58.9112 63.5811C63.4117 68.8574 67.7615 72.5939 68.0516 73.0011L68.0514 73.0012Z" fill="#FFD42A"/>
<path d="M97.3745 50.4499C97.3745 50.4499 90.9124 48.8773 86.2618 44.1651C80.4908 38.3166 71.3812 39.3454 71.3812 39.3454L66.6312 46.4009C66.6312 46.4009 71.755 52.3597 81.7984 51.6946C89.3934 51.1916 96.8183 50.4461 97.3738 50.4491L97.3745 50.4499Z" fill="#FFCC00"/>
<path d="M93.5813 28.099C93.5813 28.099 91.7817 30.2872 80.53 29.7981C71.6139 29.4105 67.8757 34.9277 67.8757 34.9277L70.9882 41.6882C70.9882 41.6882 77.1924 42.3424 84.3551 36.2622C89.7549 31.6785 93.1865 28.4352 93.5813 28.099Z" fill="#FFDD55"/>
<path opacity="0.4" d="M44.8951 42.9363C41.3463 44.694 28.2797 43.8174 28.2797 43.8174" stroke="url(#paint1_linear_2_48)" stroke-width="2"/>
<path opacity="0.5" d="M46.1304 35.2247C44.0038 32.0058 31.8286 27.3713 31.8286 27.3713" stroke="url(#paint2_linear_2_48)" stroke-width="2"/>
<path opacity="0.4" d="M48.9572 48.3113C43.6363 49.9454 35.185 56.8389 35.185 56.8389" stroke="url(#paint3_linear_2_48)" stroke-width="2"/>
<path opacity="0.4" d="M53.6281 50.4956C48.4665 52.6955 45.9707 63.5072 45.9707 63.5072" stroke="url(#paint4_linear_2_48)" stroke-width="2"/>
<path opacity="0.2" d="M62.6462 49.4456C59.5 53.5905 63.7431 63.9935 63.7431 63.9935" stroke="url(#paint5_linear_2_48)" stroke-width="2"/>
<path opacity="0.5" d="M70.5383 43.7027C80.2951 44.5727 85.7861 47.9825 85.7861 47.9825" stroke="url(#paint6_linear_2_48)" stroke-width="2"/>
<path opacity="0.3" d="M66.6346 46.9696C68.7089 53.6458 77.0895 58.69 77.0895 58.69" stroke="url(#paint7_linear_2_48)" stroke-width="2"/>
<path opacity="0.5" d="M69.5556 37.1441C79.9689 37.1686 84.8033 31.6155 84.8033 31.6155" stroke="url(#paint8_linear_2_48)" stroke-width="2"/>
<path opacity="0.5" d="M65.8634 31.462C67.5576 26.0011 74.9046 20.9592 74.9046 20.9592" stroke="url(#paint9_linear_2_48)" stroke-width="2"/>
<path opacity="0.5" d="M58.8913 29.8754C60.5584 16.8649 57.8484 15.8021 57.8484 15.8021" stroke="url(#paint10_linear_2_48)" stroke-width="2"/>
<path d="M71.8178 41.0026C71.8178 47.5041 65.6785 52.7746 58.1054 52.7746C50.5323 52.7746 44.3931 47.5041 44.3931 41.0026C44.3931 34.5011 50.5323 29.2306 58.1054 29.2306C65.6785 29.2306 71.8178 34.5011 71.8178 41.0026Z" fill="url(#paint11_linear_2_48)" stroke="#885B00" stroke-width="1.57957"/>
<g opacity="0.29" filter="url(#filter0_f_2_48)">
<path d="M70.8611 42.2943C70.8611 47.7254 65.181 52.1282 58.1744 52.1282C51.1677 52.1282 45.4877 47.7254 45.4877 42.2943C45.4877 36.8631 51.1677 32.4604 58.1744 32.4604C65.181 32.4604 70.8611 36.8631 70.8611 42.2943Z" fill="url(#paint12_linear_2_48)"/>
</g>
<g opacity="0.29" filter="url(#filter1_f_2_48)">
<path d="M69.0881 39.4816C69.0881 44.8509 64.0485 49.2035 57.8318 49.2035C51.6151 49.2035 46.5755 44.8509 46.5755 39.4816C46.5755 34.1124 51.6151 29.7598 57.8318 29.7598C64.0485 29.7598 69.0881 34.1124 69.0881 39.4816Z" fill="url(#paint13_linear_2_48)"/>
</g>
</g>
<path d="M7 52C6.92 52 6.88 51.92 6.88 51.76C6.88 51.6 6.90667 51.52 6.96 51.52C8 51.52 8.76 51.4533 9.24 51.32C9.74667 51.16 10.0933 50.8933 10.28 50.52C10.4667 50.1467 10.5467 49.56 10.52 48.76V30.24C10.5467 29.2267 10.3867 28.56 10.04 28.24C9.72 27.92 9.05333 27.76 8.04 27.76H7.16C5.53333 27.76 4.24 28.2667 3.28 29.28C2.32 30.2667 1.72 31.7333 1.48 33.68C1.48 33.7333 1.42667 33.76 1.32 33.76C1.24 33.76 1.16 33.7467 1.08 33.72C1 33.6667 0.973333 33.6267 1 33.6C1.13333 32.64 1.33333 30.1467 1.6 26.12C1.6 26.04 1.66667 26 1.8 26C1.88 26 1.94667 26.0133 2 26.04C2.08 26.0667 2.12 26.1067 2.12 26.16C2.12 26.72 2.72 27 3.92 27C6.08 27.08 8.78667 27.12 12.04 27.12C13.5067 27.12 15.1467 27.0933 16.96 27.04L19.76 27C20.64 27 21.28 26.9333 21.68 26.8C22.08 26.6667 22.3333 26.4 22.44 26C22.4933 25.92 22.5867 25.8933 22.72 25.92C22.88 25.92 22.9467 25.9733 22.92 26.08C22.84 27.1733 22.76 28.5467 22.68 30.2C22.6 31.8533 22.5733 32.9867 22.6 33.6C22.6 33.68 22.52 33.72 22.36 33.72C22.1733 33.72 22.08 33.6667 22.08 33.56C22.08 31.6667 21.64 30.2267 20.76 29.24C19.88 28.2533 18.56 27.76 16.8 27.76H15.92C15.2267 27.76 14.72 27.84 14.4 28C14.1067 28.1333 13.9067 28.3733 13.8 28.72C13.6933 29.0667 13.6267 29.6 13.6 30.32L13.68 48.76C13.68 49.5867 13.76 50.1867 13.92 50.56C14.08 50.9333 14.4 51.1867 14.88 51.32C15.36 51.4533 16.1333 51.52 17.2 51.52C17.28 51.52 17.32 51.6 17.32 51.76C17.32 51.92 17.28 52 17.2 52C16.3467 52 15.6667 51.9867 15.16 51.96L12.08 51.92L9.12 51.96C8.61333 51.9867 7.90667 52 7 52ZM118.413 51.52C118.493 51.52 118.533 51.6 118.533 51.76C118.56 51.92 118.52 52 118.413 52L114.813 51.96L112.373 52C112.08 52 111.893 51.96 111.813 51.88C111.76 51.8 111.733 51.5867 111.733 51.24V48.88C110.32 50.1333 108.92 51.0533 107.533 51.64C106.173 52.2 104.706 52.48 103.133 52.48C101.346 52.48 99.7465 52.16 98.3331 51.52C96.9198 50.88 95.7998 49.96 94.9731 48.76C94.1731 47.56 93.7731 46.16 93.7731 44.56V30.24C93.7465 29.44 93.6531 28.8533 93.4931 28.48C93.3598 28.1067 93.0798 27.8533 92.6531 27.72C92.2531 27.56 91.6131 27.48 90.7331 27.48C90.6798 27.48 90.6531 27.4 90.6531 27.24C90.6531 27.08 90.6798 27 90.7331 27L92.5731 27.04C93.6398 27.0933 94.5331 27.12 95.2531 27.12C95.9465 27.12 96.8798 27.0933 98.0531 27.04L99.8931 27C99.9731 27 100.013 27.08 100.013 27.24C100.013 27.4 99.9865 27.48 99.9331 27.48C99.0265 27.48 98.3598 27.56 97.9331 27.72C97.5331 27.88 97.2665 28.16 97.1331 28.56C96.9998 28.9333 96.9198 29.52 96.8931 30.32V43.16C96.8665 45.72 97.5065 47.72 98.8131 49.16C100.12 50.5733 101.946 51.28 104.293 51.28C105.626 51.28 106.866 51.0267 108.013 50.52C109.186 50.0133 110.426 49.1467 111.733 47.92L111.653 30.32C111.68 29.52 111.626 28.9333 111.493 28.56C111.36 28.16 111.08 27.88 110.653 27.72C110.226 27.56 109.573 27.48 108.693 27.48C108.64 27.48 108.613 27.4 108.613 27.24C108.613 27.08 108.64 27 108.693 27L110.533 27.04C111.653 27.0933 112.56 27.12 113.253 27.12C113.893 27.12 114.8 27.0933 115.973 27.04L117.853 27C117.933 27 117.973 27.08 117.973 27.24C117.973 27.4 117.946 27.48 117.893 27.48C117.013 27.48 116.36 27.56 115.933 27.72C115.533 27.8533 115.253 28.1067 115.093 28.48C114.933 28.8533 114.853 29.44 114.853 30.24V48.76C114.853 49.5867 114.933 50.1867 115.093 50.56C115.28 50.9333 115.613 51.1867 116.093 51.32C116.573 51.4533 117.346 51.52 118.413 51.52ZM147.283 51.52C147.363 51.52 147.403 51.6 147.403 51.76C147.429 51.92 147.389 52 147.283 52H142.003C141.336 52 140.109 50.88 138.323 48.64C136.563 46.3733 134.469 43.16 132.043 39C131.189 39.2133 130.323 39.32 129.443 39.32C129.123 39.32 128.749 39.2933 128.323 39.24L128.283 48.76C128.309 49.56 128.389 50.1467 128.523 50.52C128.683 50.8933 128.976 51.16 129.403 51.32C129.829 51.4533 130.496 51.52 131.403 51.52C131.509 51.52 131.563 51.6 131.563 51.76C131.589 51.92 131.549 52 131.443 52C130.616 52 129.963 51.9867 129.483 51.96L126.643 51.92L123.803 51.96C123.323 51.9867 122.656 52 121.803 52C121.696 52 121.629 51.92 121.603 51.76C121.603 51.6 121.656 51.52 121.763 51.52C122.723 51.52 123.443 51.4533 123.923 51.32C124.403 51.16 124.723 50.8933 124.883 50.52C125.069 50.12 125.176 49.5333 125.203 48.76V30.24C125.176 29.44 125.083 28.8533 124.923 28.48C124.763 28.1067 124.456 27.8533 124.003 27.72C123.576 27.56 122.883 27.48 121.923 27.48C121.816 27.48 121.763 27.4 121.763 27.24C121.763 27.08 121.816 27 121.923 27L123.923 27.04C125.096 27.0933 126.016 27.12 126.683 27.12C127.109 27.12 127.589 27.1067 128.123 27.08C128.683 27.0533 129.109 27.0267 129.403 27C130.123 26.92 130.763 26.88 131.323 26.88C133.669 26.88 135.456 27.32 136.683 28.2C137.909 29.08 138.523 30.3067 138.523 31.88C138.523 33.1067 138.149 34.2667 137.403 35.36C136.683 36.4533 135.696 37.3467 134.443 38.04C136.629 41.4533 138.469 44.1333 139.963 46.08C141.456 48 142.776 49.3867 143.923 50.24C145.096 51.0933 146.216 51.52 147.283 51.52ZM128.283 38.2C129.083 38.3067 129.696 38.36 130.123 38.36C131.963 38.36 133.269 37.96 134.043 37.16C134.843 36.36 135.243 35.0533 135.243 33.24C135.243 31.2667 134.829 29.8267 134.003 28.92C133.176 28.0133 132.083 27.56 130.723 27.56C129.976 27.56 129.456 27.6133 129.163 27.72C128.869 27.8 128.656 28.0267 128.523 28.4C128.389 28.7733 128.309 29.4133 128.283 30.32V38.2ZM173.799 27C173.852 27 173.879 27.08 173.879 27.24C173.879 27.4 173.852 27.48 173.799 27.48C171.585 27.48 170.479 28.7867 170.479 31.4L170.439 52.36C170.439 52.4133 170.399 52.4533 170.319 52.48C170.239 52.5333 170.145 52.56 170.039 52.56C169.852 52.56 169.719 52.5067 169.639 52.4L152.479 30.4V47.64C152.479 48.9467 152.732 49.92 153.239 50.56C153.772 51.2 154.585 51.52 155.679 51.52C155.759 51.52 155.799 51.6 155.799 51.76C155.799 51.92 155.759 52 155.679 52C155.012 52 154.492 51.9867 154.119 51.96L151.999 51.92L149.879 51.96C149.479 51.9867 148.919 52 148.199 52C148.119 52 148.079 51.92 148.079 51.76C148.079 51.6 148.119 51.52 148.199 51.52C150.385 51.52 151.479 50.2267 151.479 47.64V29.2C150.412 28.0533 149.305 27.48 148.159 27.48C148.079 27.48 148.039 27.4 148.039 27.24C148.039 27.08 148.079 27 148.159 27L149.919 27.04C150.265 27.0667 150.732 27.08 151.319 27.08C151.852 27.08 152.319 27.0667 152.719 27.04C153.119 27.0133 153.399 27 153.559 27C153.772 27 153.919 27.0533 153.999 27.16C154.105 27.24 154.252 27.44 154.439 27.76C154.625 28.1333 154.919 28.5733 155.319 29.08L169.479 47.4V31.4C169.479 30.0667 169.225 29.08 168.719 28.44C168.212 27.8 167.412 27.48 166.319 27.48C166.239 27.48 166.199 27.4 166.199 27.24C166.199 27.08 166.239 27 166.319 27L167.759 27.04C168.665 27.0933 169.412 27.12 169.999 27.12C170.505 27.12 171.185 27.0933 172.039 27.04L173.799 27ZM195.441 45.92C195.441 45.84 195.508 45.8 195.641 45.8C195.721 45.8 195.801 45.8267 195.881 45.88C195.961 45.9067 195.988 45.9467 195.961 46C195.721 47.44 195.601 49.24 195.601 51.4C195.601 51.6133 195.548 51.7733 195.441 51.88C195.361 51.96 195.201 52 194.961 52H176.961C176.854 52 176.801 51.92 176.801 51.76C176.801 51.6 176.841 51.52 176.921 51.52C177.828 51.52 178.481 51.4533 178.881 51.32C179.308 51.1867 179.588 50.9333 179.721 50.56C179.881 50.1867 179.961 49.5867 179.961 48.76V30.24C179.934 29.44 179.841 28.8533 179.681 28.48C179.521 28.1067 179.228 27.8533 178.801 27.72C178.401 27.56 177.761 27.48 176.881 27.48C176.801 27.48 176.761 27.4 176.761 27.24C176.761 27.08 176.788 27 176.841 27H193.841C194.054 27 194.161 27.12 194.161 27.36L194.281 32.44C194.281 32.52 194.201 32.56 194.041 32.56C193.908 32.56 193.814 32.52 193.761 32.44C193.548 31 192.988 29.8533 192.081 29C191.174 28.12 190.054 27.68 188.721 27.68H186.041C185.134 27.68 184.481 27.7467 184.081 27.88C183.681 28.0133 183.414 28.2533 183.281 28.6C183.148 28.9467 183.068 29.5067 183.041 30.28V38.52H188.881C190.108 38.52 190.988 38.3067 191.521 37.88C192.054 37.4267 192.308 36.68 192.281 35.64C192.281 35.5333 192.361 35.48 192.521 35.48C192.708 35.48 192.788 35.5333 192.761 35.64V37V39C192.761 39.8 192.774 40.4 192.801 40.8L192.841 42.84C192.841 42.9467 192.748 43 192.561 43C192.401 43 192.321 42.9467 192.321 42.84C192.321 41.6667 192.028 40.8133 191.441 40.28C190.881 39.72 189.974 39.44 188.721 39.44H183.041V48.6C183.041 49.3733 183.108 49.9467 183.241 50.32C183.401 50.6667 183.681 50.9067 184.081 51.04C184.508 51.1733 185.148 51.24 186.001 51.24H189.641C190.948 51.24 192.121 50.76 193.161 49.8C194.201 48.8133 194.961 47.52 195.441 45.92ZM203.424 31.36C203.424 32.3733 203.677 33.2667 204.184 34.04C204.69 34.8133 205.317 35.48 206.064 36.04C206.81 36.6 207.824 37.2533 209.104 38C210.464 38.8267 211.544 39.5467 212.344 40.16C213.144 40.7467 213.824 41.48 214.384 42.36C214.944 43.24 215.224 44.2667 215.224 45.44C215.224 47.5467 214.477 49.2533 212.984 50.56C211.49 51.84 209.464 52.48 206.904 52.48C205.837 52.48 204.757 52.3467 203.664 52.08C202.597 51.8133 201.69 51.4533 200.944 51C200.81 50.92 200.717 50.84 200.664 50.76C200.637 50.6533 200.597 50.48 200.544 50.24L200.144 44.52C200.117 44.4133 200.184 44.3467 200.344 44.32C200.504 44.2933 200.597 44.3333 200.624 44.44C201.21 46.4133 202.104 48.12 203.304 49.56C204.504 51 206.024 51.72 207.864 51.72C209.117 51.72 210.157 51.3867 210.984 50.72C211.81 50.0267 212.224 48.9067 212.224 47.36C212.224 46.1333 211.944 45.08 211.384 44.2C210.85 43.2933 210.197 42.5467 209.424 41.96C208.677 41.3733 207.637 40.6667 206.304 39.84C205.024 39.04 204.01 38.36 203.264 37.8C202.544 37.24 201.93 36.56 201.424 35.76C200.917 34.9333 200.664 33.9733 200.664 32.88C200.664 31.52 201.024 30.36 201.744 29.4C202.49 28.44 203.45 27.7333 204.624 27.28C205.824 26.8 207.09 26.56 208.424 26.56C209.25 26.56 210.09 26.64 210.944 26.8C211.824 26.96 212.61 27.1867 213.304 27.48C213.73 27.6667 213.944 27.9067 213.944 28.2L214.104 33.2C214.104 33.3067 214.024 33.3733 213.864 33.4C213.73 33.4267 213.65 33.3867 213.624 33.28C213.464 32.48 213.157 31.6267 212.704 30.72C212.25 29.7867 211.597 28.9733 210.744 28.28C209.89 27.5867 208.85 27.24 207.624 27.24C206.264 27.24 205.224 27.64 204.504 28.44C203.784 29.24 203.424 30.2133 203.424 31.36ZM231.345 52.48C228.918 52.48 226.771 51.9333 224.905 50.84C223.038 49.72 221.585 48.2 220.545 46.28C219.531 44.36 219.025 42.2267 219.025 39.88C219.025 37.3733 219.611 35.1067 220.785 33.08C221.985 31.0533 223.611 29.4667 225.665 28.32C227.745 27.1467 230.051 26.56 232.585 26.56C235.038 26.56 237.198 27.1067 239.065 28.2C240.958 29.2667 242.411 30.7467 243.425 32.64C244.438 34.5333 244.945 36.6533 244.945 39C244.945 41.64 244.331 43.9867 243.105 46.04C241.878 48.0667 240.225 49.6533 238.145 50.8C236.065 51.92 233.798 52.48 231.345 52.48ZM233.065 51.44C234.825 51.44 236.358 51.0133 237.665 50.16C238.971 49.28 239.971 48.0533 240.665 46.48C241.385 44.9067 241.745 43.08 241.745 41C241.745 38.5467 241.278 36.2933 240.345 34.24C239.438 32.1867 238.171 30.56 236.545 29.36C234.918 28.1333 233.091 27.52 231.065 27.52C229.331 27.52 227.785 27.9467 226.425 28.8C225.091 29.6533 224.051 30.88 223.305 32.48C222.558 34.0533 222.185 35.9067 222.185 38.04C222.185 40.4667 222.651 42.7067 223.585 44.76C224.518 46.8133 225.811 48.44 227.465 49.64C229.118 50.84 230.985 51.44 233.065 51.44ZM248.322 52C248.268 52 248.228 51.92 248.202 51.76C248.202 51.6 248.242 51.52 248.322 51.52C249.228 51.52 249.882 51.4533 250.282 51.32C250.708 51.1867 250.988 50.9333 251.122 50.56C251.282 50.16 251.362 49.56 251.362 48.76V30.24C251.362 29.44 251.282 28.8533 251.122 28.48C250.988 28.1067 250.708 27.8533 250.282 27.72C249.882 27.56 249.242 27.48 248.362 27.48C248.308 27.48 248.268 27.4 248.242 27.24C248.242 27.08 248.282 27 248.362 27L250.242 27.04C251.308 27.0933 252.188 27.12 252.882 27.12C253.548 27.12 254.468 27.0933 255.642 27.04L257.562 27C257.615 27 257.642 27.08 257.642 27.24C257.642 27.4 257.615 27.48 257.562 27.48C256.655 27.48 255.988 27.56 255.562 27.72C255.135 27.8533 254.855 28.12 254.722 28.52C254.588 28.8933 254.508 29.48 254.482 30.28V48.6C254.508 49.3733 254.588 49.9467 254.722 50.32C254.855 50.6667 255.108 50.9067 255.482 51.04C255.855 51.1733 256.428 51.24 257.202 51.24H260.562C262.348 51.24 263.775 50.7733 264.842 49.84C265.935 48.9067 266.748 47.52 267.282 45.68C267.282 45.6267 267.348 45.6 267.482 45.6C267.562 45.6 267.628 45.6267 267.682 45.68C267.762 45.7067 267.802 45.7333 267.802 45.76C267.615 47.52 267.522 49.4 267.522 51.4C267.522 51.8 267.308 52 266.882 52H248.322Z" fill="white"/>
<defs>
<filter id="filter0_f_2_48" x="41.9549" y="28.9276" width="32.4389" height="26.7333" filterUnits="userSpaceOnUse" color-interpolation-filters="sRGB">
<feFlood flood-opacity="0" result="BackgroundImageFix"/>
<feBlend mode="normal" in="SourceGraphic" in2="BackgroundImageFix" result="shape"/>
<feGaussianBlur stdDeviation="1.76638" result="effect1_foregroundBlur_2_48"/>
</filter>
<filter id="filter1_f_2_48" x="38.3039" y="21.4882" width="39.0558" height="35.9869" filterUnits="userSpaceOnUse" color-interpolation-filters="sRGB">
<feFlood flood-opacity="0" result="BackgroundImageFix"/>
<feBlend mode="normal" in="SourceGraphic" in2="BackgroundImageFix" result="shape"/>
<feGaussianBlur stdDeviation="4.1358" result="effect1_foregroundBlur_2_48"/>
</filter>
<linearGradient id="paint0_linear_2_48" x1="51.1577" y1="30.5317" x2="46.0563" y2="18.6657" gradientUnits="userSpaceOnUse">
<stop stop-color="#A56C00"/>
<stop offset="1" stop-color="#A56C00" stop-opacity="0"/>
</linearGradient>
<linearGradient id="paint1_linear_2_48" x1="44.113" y1="43.4449" x2="28.1432" y2="43.4449" gradientUnits="userSpaceOnUse">
<stop stop-color="#A56C00"/>
<stop offset="1" stop-color="#A56C00" stop-opacity="0"/>
</linearGradient>
<linearGradient id="paint2_linear_2_48" x1="46.2675" y1="34.1847" x2="32.8199" y2="25.5078" gradientUnits="userSpaceOnUse">
<stop stop-color="#A56C00"/>
<stop offset="1" stop-color="#A56C00" stop-opacity="0"/>
</linearGradient>
<linearGradient id="paint3_linear_2_48" x1="48.5684" y1="47.5767" x2="39.5251" y2="57.1508" gradientUnits="userSpaceOnUse">
<stop stop-color="#A56C00"/>
<stop offset="1" stop-color="#A56C00" stop-opacity="0"/>
</linearGradient>
<linearGradient id="paint4_linear_2_48" x1="55.0763" y1="50.9819" x2="50.5821" y2="62.0708" gradientUnits="userSpaceOnUse">
<stop stop-color="#A56C00"/>
<stop offset="1" stop-color="#A56C00" stop-opacity="0"/>
</linearGradient>
<linearGradient id="paint5_linear_2_48" x1="62.6145" y1="52.4724" x2="62.6138" y2="59.8391" gradientUnits="userSpaceOnUse">
<stop stop-color="#A56C00"/>
<stop offset="1" stop-color="#A56C00" stop-opacity="0"/>
</linearGradient>
<linearGradient id="paint6_linear_2_48" x1="70.4021" y1="45.8425" x2="83.3167" y2="48.8643" gradientUnits="userSpaceOnUse">
<stop stop-color="#A56C00"/>
<stop offset="1" stop-color="#A56C00" stop-opacity="0"/>
</linearGradient>
<linearGradient id="paint7_linear_2_48" x1="66.4974" y1="52.8299" x2="77.2259" y2="52.8299" gradientUnits="userSpaceOnUse">
<stop stop-color="#A56C00"/>
<stop offset="1" stop-color="#A56C00" stop-opacity="0"/>
</linearGradient>
<linearGradient id="paint8_linear_2_48" x1="69.4202" y1="37.2864" x2="83.243" y2="34.091" gradientUnits="userSpaceOnUse">
<stop stop-color="#A56C00"/>
<stop offset="1" stop-color="#A56C00" stop-opacity="0"/>
</linearGradient>
<linearGradient id="paint9_linear_2_48" x1="65.754" y1="32.0866" x2="73.4427" y2="20.9107" gradientUnits="userSpaceOnUse">
<stop stop-color="#A56C00"/>
<stop offset="1" stop-color="#A56C00" stop-opacity="0"/>
</linearGradient>
<linearGradient id="paint10_linear_2_48" x1="58.6413" y1="28.7516" x2="58.6413" y2="18.4598" gradientUnits="userSpaceOnUse">
<stop stop-color="#A56C00"/>
<stop offset="1" stop-color="#A56C00" stop-opacity="0"/>
</linearGradient>
<linearGradient id="paint11_linear_2_48" x1="58.1054" y1="52.8671" x2="58.1054" y2="29.138" gradientUnits="userSpaceOnUse">
<stop stop-color="#AA8800"/>
<stop offset="1" stop-color="#D56B0D" stop-opacity="0.69912"/>
</linearGradient>
<linearGradient id="paint12_linear_2_48" x1="58.1744" y1="52.5831" x2="58.1744" y2="38.6616" gradientUnits="userSpaceOnUse">
<stop stop-color="#423401"/>
<stop offset="1" stop-opacity="0"/>
</linearGradient>
<linearGradient id="paint13_linear_2_48" x1="57.8318" y1="29.7598" x2="57.8318" y2="43.2322" gradientUnits="userSpaceOnUse">
<stop stop-color="white"/>
<stop offset="1" stop-color="white" stop-opacity="0"/>
</linearGradient>
<clipPath id="clip0_2_48">
<rect width="77.9" height="67" fill="white" transform="translate(19.475 6)"/>
</clipPath>
</defs>
</svg>
