<svg width="267" height="79" viewBox="0 0 267 79" fill="none" xmlns="http://www.w3.org/2000/svg">
<g clip-path="url(#clip0_2_48)">
<path d="M66.206 10.1048C66.206 10.1048 67.1135 16.0397 60.7391 22.3279C55.6879 27.3106 57.497 33.7605 57.497 33.7605L64.4918 35.5471C64.4918 35.5471 67.8587 32.2334 68.7105 24.8165C69.5397 17.5965 66.2614 10.5135 66.2061 10.1046L66.206 10.1048Z" fill="#FFE680"/>
<path d="M44.2782 13.0109C44.2782 13.0109 48.0772 17.3246 47.0855 25.6171C46.2996 32.188 52.106 36.5659 52.106 36.5659L59.0224 34.5673C59.0224 34.5673 59.6833 30.1282 55.2713 23.7095C51.2633 17.8788 44.5976 13.3178 44.2782 13.0111V13.0109Z" fill="#FFE680"/>
<path d="M35.6613 20.1132C35.6613 20.1132 35.5818 24.2066 38.836 32.0608C41.4148 38.2843 48.849 40.0959 48.849 40.0959L54.0943 35.74C54.0943 35.74 53.8575 28.4305 45.2732 27.319C38.8772 26.4909 36.1031 20.2729 35.6613 20.1137V20.1132Z" fill="#FFE680"/>
<path d="M21.8622 38.6534C21.8622 38.6534 29.2296 38.5539 35.5935 42.5102C41.8253 46.3846 48.8851 45.382 48.8851 45.382L51.0202 39.391C51.0202 39.391 47.2341 35.5581 38.554 35.6864C27.856 35.8444 22.3385 38.6091 21.8622 38.6534Z" fill="#FFE680"/>
<path d="M39.8271 68.28C39.8271 68.28 40.8684 64.4528 49.7883 61.1598C56.8567 58.5503 58.4844 52.0648 58.4844 52.0648L53.0838 47.8511C53.0838 47.8511 46.0072 48.7279 43.8624 55.9499C42.2405 61.4113 39.9837 67.8917 39.8271 68.2795V68.28Z" fill="#FFE680"/>
<path d="M26.6186 52.3083C26.6186 52.3083 30.4478 53.9673 40.1471 54.3557C47.8329 54.6635 52.6012 49.4426 52.6012 49.4426L49.8904 43.6258C49.8904 43.6258 43.0799 41.7568 37.4715 47.4457C33.2302 51.7479 26.9563 52.0181 26.6173 52.3089L26.6186 52.3083Z" fill="#FFE680"/>
<path d="M52.1034 67.9238C52.1034 67.9238 59.1599 63.9719 59.2247 61.951C59.4367 55.348 60.222 50.2154 60.222 50.2154L52.9796 49.4456C52.9796 49.4456 49.6089 50.1444 52.7065 57.1067C55.049 62.3719 51.9703 67.5285 52.1035 67.9235L52.1034 67.9238Z" fill="#FFE680"/>
<path d="M87.0241 58.8693C87.0241 58.8693 86.676 55.4544 81.2754 48.5269C76.9959 43.0375 69.2711 42.8482 69.2711 42.8482L65.4319 48.1762C65.4319 48.1762 67.7287 53.9892 76.3912 54.4804C82.9421 54.8519 86.5503 58.8082 87.0241 58.8693Z" fill="#FFE680"/>
<path d="M79.5087 66.7355C79.5087 66.7355 75.3062 65.5305 74.665 57.2129C74.1568 50.6219 67.5778 47.1414 67.5778 47.1414L61.1493 50.107C61.1493 50.107 61.453 54.5151 66.9672 60.2714C71.9681 65.4918 79.1339 66.4793 79.5086 66.7355H79.5087Z" fill="#FFE680"/>
<path d="M94.0658 38.6463C94.0658 38.6463 87.3769 39.9763 82.4499 37.6254C75.7247 34.4164 68.7445 37.4887 68.7445 37.4887L68.2925 43.7418C68.2925 43.7418 73.5155 47.9337 81.4208 44.8535C87.399 42.5242 93.6144 38.7846 94.0656 38.6464L94.0658 38.6463Z" fill="#FFEEAA"/>
<path d="M83.5135 22.8247C83.5135 22.8247 83.453 24.1065 74.1726 26.5578C66.817 28.4995 64.3874 34.7979 64.3874 34.7979L69.2294 39.4854C69.2294 39.4854 74.3965 38.3679 79.411 32.2841C83.2258 27.6557 83.3081 23.1966 83.5123 22.8246L83.5135 22.8247Z" fill="#FFE680"/>
<path d="M78.9163 12.1976C78.9163 12.1976 79.5181 15.4049 69.6614 20.089C61.8506 23.8008 60.8415 31.4497 60.8415 31.4497L67.6422 35.7807C67.6422 35.7807 73.0239 33.3868 77.2023 25.5183C80.0127 20.2258 78.7878 12.6625 78.9163 12.1973V12.1976Z" fill="#FFD42A"/>
<path d="M55.7069 6C55.7069 6 58.1685 10.3194 53.2542 19.0222C49.3599 25.9188 53.6671 32.6702 53.6671 32.6702L62.1321 32.8474C62.1321 32.8474 67.5659 27.4657 63.0612 19.7315C59.6546 13.8823 55.9134 6.44324 55.7069 6.0003V6Z" fill="#FFCC00"/>
<path d="M39.8612 11.9996C39.8612 11.9996 41.3623 13.5658 41.2801 23.2375C41.2149 30.9016 48.4832 35.409 48.4832 35.409L56.2159 32.4468C56.2159 32.4468 58.4294 25.5829 50.4907 20.2601C44.4864 16.2361 40.2687 12.3247 39.8606 12.0001L39.8612 11.9996Z" fill="#FFD42A"/>
<path opacity="0.3" d="M51.1957 30.9265C50.0178 23.9215 44.7368 19.4089 44.7368 19.4089" stroke="url(#paint0_linear_2_48)" stroke-width="2"/>
<path d="M23.0533 23.4293C23.0533 23.4293 27.5343 25.0286 32.9141 33.5266C37.1772 40.2606 46.0787 41.186 46.0787 41.186L51.1759 35.3812C51.1759 35.3812 49.2439 28.455 39.2963 27.0949C31.7736 26.0663 23.5926 23.5432 23.0535 23.4292L23.0533 23.4293Z" fill="#FFDD55"/>
<path d="M27.2041 63.0889C27.2041 63.0889 28.5227 59.249 39.7705 58.6975C48.6836 58.2604 53.4568 51.7437 53.4568 51.7437L49.5162 45.3094C49.5162 45.3094 43.293 45.2977 35.718 50.9979C28.5393 56.4001 27.5548 62.7183 27.2044 63.0886L27.2041 63.0889Z" fill="#FFD42A"/>
<path d="M19.475 43.0828C19.475 43.0828 26.4125 45.6994 30.5813 47.3412C38.6957 50.5368 47.9502 46.7489 47.9502 46.7489L47.9887 39.6134C47.9887 39.6134 41.427 35.2554 32.6823 39.5474C26.0693 42.7931 19.9788 42.8811 19.475 43.0828Z" fill="#FFCC00"/>
<path d="M41.9687 69.9393C41.9687 69.9393 43.0291 68.3511 51.8488 62.3332C58.8379 57.5645 58.0572 51.703 58.0572 51.703L50.5158 48.3962C50.5158 48.3962 42.3714 48.8995 43.0623 57.5267C43.6382 64.7175 42.0055 69.4627 41.9681 69.9396L41.9687 69.9393Z" fill="#FFCC00"/>
<path d="M86.7907 66.0032C86.7907 66.0032 82.6269 65.0429 79.9409 55.6499C77.8124 48.2066 69.4775 45.3685 69.4775 45.3685L62.8286 49.8697C62.8286 49.8697 63.2532 58.6851 72.4711 62.1725C79.442 64.8092 86.302 65.7756 86.7907 66.0037V66.0032Z" fill="#FFDD55"/>
<path d="M68.0514 73.0012C68.0514 73.0012 65.2684 69.0271 68.4141 59.7399C70.9067 52.3804 65.6461 49.4734 65.6461 49.4734L57.2663 50.5168C57.2663 50.5168 52.9601 56.6043 58.9112 63.5811C63.4117 68.8574 67.7615 72.5939 68.0516 73.0011L68.0514 73.0012Z" fill="#FFD42A"/>
<path d="M97.3745 50.4499C97.3745 50.4499 90.9124 48.8773 86.2618 44.1651C80.4908 38.3166 71.3812 39.3454 71.3812 39.3454L66.6312 46.4009C66.6312 46.4009 71.755 52.3597 81.7984 51.6946C89.3934 51.1916 96.8183 50.4461 97.3738 50.4491L97.3745 50.4499Z" fill="#FFCC00"/>
<path d="M93.5813 28.099C93.5813 28.099 91.7817 30.2872 80.53 29.7981C71.6139 29.4105 67.8757 34.9277 67.8757 34.9277L70.9882 41.6882C70.9882 41.6882 77.1924 42.3424 84.3551 36.2622C89.7549 31.6785 93.1865 28.4352 93.5813 28.099Z" fill="#FFDD55"/>
<path opacity="0.4" d="M44.8951 42.9363C41.3463 44.694 28.2797 43.8174 28.2797 43.8174" stroke="url(#paint1_linear_2_48)" stroke-width="2"/>
<path opacity="0.5" d="M46.1304 35.2247C44.0038 32.0058 31.8286 27.3713 31.8286 27.3713" stroke="url(#paint2_linear_2_48)" stroke-width="2"/>
<path opacity="0.4" d="M48.9572 48.3113C43.6363 49.9454 35.185 56.8389 35.185 56.8389" stroke="url(#paint3_linear_2_48)" stroke-width="2"/>
<path opacity="0.4" d="M53.6281 50.4956C48.4665 52.6955 45.9707 63.5072 45.9707 63.5072" stroke="url(#paint4_linear_2_48)" stroke-width="2"/>
<path opacity="0.2" d="M62.6462 49.4456C59.5 53.5905 63.7431 63.9935 63.7431 63.9935" stroke="url(#paint5_linear_2_48)" stroke-width="2"/>
<path opacity="0.5" d="M70.5383 43.7027C80.2951 44.5727 85.7861 47.9825 85.7861 47.9825" stroke="url(#paint6_linear_2_48)" stroke-width="2"/>
<path opacity="0.3" d="M66.6346 46.9696C68.7089 53.6458 77.0895 58.69 77.0895 58.69" stroke="url(#paint7_linear_2_48)" stroke-width="2"/>
<path opacity="0.5" d="M69.5556 37.1441C79.9689 37.1686 84.8033 31.6155 84.8033 31.6155" stroke="url(#paint8_linear_2_48)" stroke-width="2"/>
<path opacity="0.5" d="M65.8634 31.462C67.5576 26.0011 74.9046 20.9592 74.9046 20.9592" stroke="url(#paint9_linear_2_48)" stroke-width="2"/>
<path opacity="0.5" d="M58.8913 29.8754C60.5584 16.8649 57.8484 15.8021 57.8484 15.8021" stroke="url(#paint10_linear_2_48)" stroke-width="2"/>
<path d="M71.8178 41.0026C71.8178 47.5041 65.6785 52.7746 58.1054 52.7746C50.5323 52.7746 44.3931 47.5041 44.3931 41.0026C44.3931 34.5011 50.5323 29.2306 58.1054 29.2306C65.6785 29.2306 71.8178 34.5011 71.8178 41.0026Z" fill="url(#paint11_linear_2_48)" stroke="#885B00" stroke-width="1.57957"/>
<g opacity="0.29" filter="url(#filter0_f_2_48)">
<path d="M70.8611 42.2943C70.8611 47.7254 65.181 52.1282 58.1744 52.1282C51.1677 52.1282 45.4877 47.7254 45.4877 42.2943C45.4877 36.8631 51.1677 32.4604 58.1744 32.4604C65.181 32.4604 70.8611 36.8631 70.8611 42.2943Z" fill="url(#paint12_linear_2_48)"/>
</g>
<g opacity="0.29" filter="url(#filter1_f_2_48)">
<path d="M69.0881 39.4816C69.0881 44.8509 64.0485 49.2035 57.8318 49.2035C51.6151 49.2035 46.5755 44.8509 46.5755 39.4816C46.5755 34.1124 51.6151 29.7598 57.8318 29.7598C64.0485 29.7598 69.0881 34.1124 69.0881 39.4816Z" fill="url(#paint13_linear_2_48)"/>
</g>
</g>
<path d="M7.4 52C7.29333 52 7.24 51.92 7.24 51.76C7.24 51.6 7.28 51.52 7.36 51.52C8.37333 51.52 9.12 51.4533 9.6 51.32C10.08 51.1867 10.4 50.9333 10.56 50.56C10.7467 50.16 10.8267 49.56 10.8 48.76V30.24C10.8 29.52 10.72 28.9867 10.56 28.64C10.4267 28.2667 10.1733 28.0133 9.8 27.88C9.42667 27.7467 8.84 27.68 8.04 27.68H7C5.26667 27.68 3.97333 28.1333 3.12 29.04C2.29333 29.92 1.74667 31.3867 1.48 33.44C1.48 33.4933 1.42667 33.52 1.32 33.52C1.10667 33.52 1 33.48 1 33.4C1.13333 32.52 1.33333 30.0933 1.6 26.12C1.6 26.04 1.66667 26 1.8 26C1.88 26 1.94667 26.0133 2 26.04C2.08 26.0667 2.12 26.1067 2.12 26.16C2.12 26.72 2.72 27 3.92 27C6.08 27.08 8.78667 27.12 12.04 27.12C13.5067 27.12 15.1467 27.0933 16.96 27.04L19.76 27C20.64 27 21.28 26.9333 21.68 26.8C22.08 26.6667 22.3333 26.4 22.44 26C22.4933 25.92 22.5867 25.8933 22.72 25.92C22.88 25.92 22.9467 25.9733 22.92 26.08C22.84 27.1467 22.76 28.48 22.68 30.08C22.6 31.68 22.5733 32.7733 22.6 33.36C22.6 33.44 22.5067 33.48 22.32 33.48C22.16 33.48 22.08 33.44 22.08 33.36C22.08 31.3333 21.6933 29.88 20.92 29C20.1467 28.12 18.84 27.68 17 27.68H15.92C15.1467 27.68 14.5733 27.76 14.2 27.92C13.8533 28.0533 13.6133 28.3067 13.48 28.68C13.3733 29.0267 13.32 29.5733 13.32 30.32L13.4 48.76C13.4267 49.5867 13.52 50.1867 13.68 50.56C13.84 50.9333 14.1467 51.1867 14.6 51.32C15.0533 51.4533 15.8 51.52 16.84 51.52C16.8933 51.52 16.92 51.6 16.92 51.76C16.92 51.92 16.8933 52 16.84 52C16.0133 52 15.3733 51.9867 14.92 51.96L12.08 51.92L9.32 51.96C8.86667 51.9867 8.22667 52 7.4 52ZM118.213 51.52C118.293 51.52 118.333 51.6 118.333 51.76C118.36 51.92 118.32 52 118.213 52L114.773 51.96L112.613 52C112.32 52 112.133 51.96 112.053 51.88C111.973 51.7733 111.933 51.56 111.933 51.24V48.56C110.466 49.9467 109.026 50.9467 107.613 51.56C106.226 52.1733 104.733 52.48 103.133 52.48C101.373 52.48 99.7998 52.16 98.4131 51.52C97.0265 50.88 95.9331 49.96 95.1331 48.76C94.3598 47.56 93.9731 46.16 93.9731 44.56V30.24C93.9731 29.44 93.8931 28.8533 93.7331 28.48C93.5731 28.1067 93.2798 27.8533 92.8531 27.72C92.4265 27.56 91.7465 27.48 90.8131 27.48C90.7598 27.48 90.7331 27.4 90.7331 27.24C90.7331 27.08 90.7598 27 90.8131 27L92.6131 27.04C93.6265 27.0933 94.4798 27.12 95.1731 27.12C95.8665 27.12 96.7731 27.0933 97.8931 27.04L99.7331 27C99.7865 27 99.8131 27.08 99.8131 27.24C99.8131 27.4 99.7865 27.48 99.7331 27.48C98.7998 27.48 98.1065 27.56 97.6531 27.72C97.2265 27.88 96.9331 28.16 96.7731 28.56C96.6398 28.9333 96.5598 29.52 96.5331 30.32L96.5731 43.16C96.5465 45.7733 97.1865 47.8 98.4931 49.24C99.8265 50.68 101.706 51.4 104.133 51.4C105.52 51.4 106.813 51.12 108.013 50.56C109.24 50 110.546 49.0667 111.933 47.76L111.893 30.32C111.92 29.52 111.853 28.9333 111.693 28.56C111.56 28.16 111.266 27.88 110.813 27.72C110.386 27.56 109.706 27.48 108.773 27.48C108.72 27.48 108.693 27.4 108.693 27.24C108.693 27.08 108.72 27 108.773 27L110.573 27.04C111.64 27.0933 112.506 27.12 113.173 27.12C113.813 27.12 114.693 27.0933 115.813 27.04L117.693 27C117.746 27 117.773 27.08 117.773 27.24C117.773 27.4 117.746 27.48 117.693 27.48C116.76 27.48 116.066 27.56 115.613 27.72C115.186 27.8533 114.893 28.1067 114.733 28.48C114.573 28.8533 114.493 29.44 114.493 30.24V48.76C114.493 49.56 114.573 50.16 114.733 50.56C114.92 50.9333 115.266 51.1867 115.773 51.32C116.306 51.4533 117.12 51.52 118.213 51.52ZM146.728 51.52C146.835 51.52 146.888 51.6 146.888 51.76C146.888 51.92 146.835 52 146.728 52H142.048C141.355 52 140.088 50.8533 138.248 48.56C136.435 46.2667 134.248 43.0533 131.688 38.92C130.862 39.16 129.982 39.28 129.048 39.28C128.648 39.28 128.182 39.2533 127.648 39.2L127.568 48.76C127.595 49.5867 127.688 50.1867 127.848 50.56C128.008 50.9333 128.302 51.1867 128.728 51.32C129.182 51.4533 129.902 51.52 130.888 51.52C130.995 51.52 131.048 51.6 131.048 51.76C131.048 51.92 131.008 52 130.928 52C130.102 52 129.448 51.9867 128.968 51.96L126.248 51.92L123.488 51.96C123.008 51.9867 122.355 52 121.528 52C121.422 52 121.368 51.92 121.368 51.76C121.368 51.6 121.422 51.52 121.528 51.52C122.542 51.52 123.288 51.4533 123.768 51.32C124.248 51.16 124.582 50.8933 124.768 50.52C124.955 50.1467 125.062 49.56 125.088 48.76V30.24C125.062 29.44 124.968 28.8533 124.808 28.48C124.648 28.1067 124.328 27.8533 123.848 27.72C123.395 27.56 122.662 27.48 121.648 27.48C121.542 27.48 121.488 27.4 121.488 27.24C121.488 27.08 121.542 27 121.648 27L123.608 27.04C124.728 27.0933 125.622 27.12 126.288 27.12C126.848 27.12 127.342 27.1067 127.768 27.08C128.222 27.0533 128.582 27.0267 128.848 27C129.622 26.92 130.302 26.88 130.888 26.88C133.102 26.88 134.795 27.32 135.968 28.2C137.142 29.08 137.728 30.3067 137.728 31.88C137.728 33.1333 137.355 34.32 136.608 35.44C135.888 36.5333 134.902 37.4267 133.648 38.12C135.915 41.5333 137.795 44.2 139.288 46.12C140.808 48.04 142.155 49.4267 143.328 50.28C144.502 51.1067 145.635 51.52 146.728 51.52ZM127.568 38.24C128.288 38.32 129.008 38.36 129.728 38.36C131.595 38.36 132.942 37.96 133.768 37.16C134.595 36.36 135.008 35.0533 135.008 33.24C135.008 31.2133 134.568 29.7467 133.688 28.84C132.808 27.9333 131.622 27.48 130.128 27.48C129.382 27.48 128.848 27.5333 128.528 27.64C128.208 27.72 127.968 27.96 127.808 28.36C127.675 28.7333 127.595 29.3867 127.568 30.32V38.24ZM172.971 27C173.024 27 173.051 27.08 173.051 27.24C173.051 27.4 173.024 27.48 172.971 27.48C171.878 27.48 171.078 27.7867 170.571 28.4C170.064 28.9867 169.824 29.9467 169.851 31.28L169.811 52.4C169.811 52.4533 169.771 52.4933 169.691 52.52C169.638 52.5733 169.584 52.6 169.531 52.6C169.371 52.6 169.251 52.5467 169.171 52.44L152.131 30.28L151.851 29.92V47.76C151.878 49.0933 152.118 50.0533 152.571 50.64C153.024 51.2267 153.784 51.52 154.851 51.52C154.931 51.52 154.971 51.6 154.971 51.76C154.971 51.92 154.931 52 154.851 52C154.238 52 153.758 51.9867 153.411 51.96L151.411 51.92L149.451 51.96C149.104 51.9867 148.584 52 147.891 52C147.811 52 147.771 51.92 147.771 51.76C147.771 51.6 147.811 51.52 147.891 51.52C148.958 51.52 149.744 51.2267 150.251 50.64C150.758 50.0533 150.998 49.0933 150.971 47.76V28.96C149.958 27.9733 148.931 27.48 147.891 27.48C147.811 27.48 147.771 27.4 147.771 27.24C147.771 27.08 147.811 27 147.891 27L149.491 27.04C149.784 27.0667 150.198 27.08 150.731 27.08C151.211 27.08 151.611 27.0667 151.931 27.04C152.278 27.0133 152.544 27 152.731 27C152.918 27 153.051 27.0533 153.131 27.16C153.238 27.24 153.371 27.4267 153.531 27.72C153.824 28.2 154.131 28.6533 154.451 29.08L169.011 48.24L168.971 31.28C168.944 29.92 168.704 28.9467 168.251 28.36C167.798 27.7733 167.038 27.48 165.971 27.48C165.918 27.48 165.891 27.4 165.891 27.24C165.891 27.08 165.918 27 165.971 27L167.411 27.04C168.211 27.0933 168.878 27.12 169.411 27.12C169.891 27.12 170.531 27.0933 171.331 27.04L172.971 27ZM194.694 46.04C194.694 45.96 194.761 45.92 194.894 45.92C194.974 45.92 195.054 45.9467 195.134 46C195.214 46.0267 195.241 46.0667 195.214 46.12C194.974 47.5067 194.854 49.2667 194.854 51.4C194.854 51.6133 194.814 51.7733 194.734 51.88C194.654 51.96 194.494 52 194.254 52H176.334C176.227 52 176.174 51.92 176.174 51.76C176.174 51.6 176.214 51.52 176.294 51.52C177.254 51.52 177.947 51.4533 178.374 51.32C178.827 51.1867 179.134 50.9333 179.294 50.56C179.454 50.16 179.534 49.56 179.534 48.76V30.24C179.481 29.44 179.374 28.8533 179.214 28.48C179.054 28.1067 178.747 27.8533 178.294 27.72C177.867 27.56 177.187 27.48 176.254 27.48C176.174 27.48 176.134 27.4 176.134 27.24C176.134 27.08 176.161 27 176.214 27H193.134C193.241 27 193.307 27.0267 193.334 27.08C193.387 27.1333 193.414 27.2267 193.414 27.36C193.494 28.8267 193.534 30.48 193.534 32.32C193.534 32.4267 193.454 32.48 193.294 32.48C193.134 32.48 193.054 32.4267 193.054 32.32C192.921 30.9067 192.467 29.7733 191.694 28.92C190.947 28.04 189.974 27.6 188.774 27.6H185.174C184.241 27.6 183.561 27.6667 183.134 27.8C182.707 27.9333 182.414 28.1867 182.254 28.56C182.121 28.9067 182.041 29.48 182.014 30.28V38.56H188.254C189.427 38.56 190.254 38.36 190.734 37.96C191.214 37.5333 191.441 36.8 191.414 35.76C191.414 35.6533 191.494 35.6 191.654 35.6C191.814 35.6 191.881 35.6533 191.854 35.76V37.08V39L191.894 40.76C191.947 41.56 191.974 42.2133 191.974 42.72C191.974 42.8267 191.881 42.88 191.694 42.88C191.534 42.88 191.454 42.8267 191.454 42.72C191.454 41.52 191.187 40.6667 190.654 40.16C190.147 39.6533 189.281 39.4 188.054 39.4H182.014V48.6C182.014 49.3733 182.094 49.9467 182.254 50.32C182.414 50.6667 182.707 50.9067 183.134 51.04C183.561 51.1733 184.227 51.24 185.134 51.24H189.934C191.054 51.24 192.041 50.7733 192.894 49.84C193.747 48.88 194.347 47.6133 194.694 46.04ZM202.402 31.64C202.402 32.68 202.655 33.5867 203.162 34.36C203.695 35.1333 204.335 35.8 205.082 36.36C205.828 36.8933 206.842 37.5333 208.122 38.28C209.455 39.0267 210.522 39.7067 211.322 40.32C212.148 40.9067 212.842 41.64 213.402 42.52C213.962 43.4 214.242 44.4267 214.242 45.6C214.242 46.9067 213.922 48.08 213.282 49.12C212.642 50.16 211.695 50.9867 210.442 51.6C209.215 52.1867 207.748 52.48 206.042 52.48C203.908 52.48 202.002 52.0133 200.322 51.08C200.188 51 200.095 50.8933 200.042 50.76C199.988 50.6267 199.948 50.48 199.922 50.32L199.402 44.88C199.375 44.7733 199.442 44.7067 199.602 44.68C199.762 44.6533 199.855 44.6933 199.882 44.8C200.255 46.6667 201.042 48.3067 202.242 49.72C203.442 51.1333 205.015 51.84 206.962 51.84C208.295 51.84 209.415 51.48 210.322 50.76C211.228 50.0133 211.682 48.84 211.682 47.24C211.682 46.04 211.402 45 210.842 44.12C210.308 43.2133 209.642 42.4667 208.842 41.88C208.068 41.2667 207.042 40.5867 205.762 39.84C204.508 39.0933 203.495 38.44 202.722 37.88C201.975 37.2933 201.335 36.5867 200.802 35.76C200.295 34.9067 200.042 33.92 200.042 32.8C200.042 31.4667 200.388 30.3333 201.082 29.4C201.802 28.44 202.722 27.7333 203.842 27.28C204.988 26.8 206.202 26.56 207.482 26.56C209.082 26.56 210.655 26.88 212.202 27.52C212.628 27.68 212.842 27.9067 212.842 28.2L213.082 32.8C213.082 32.9067 213.002 32.9733 212.842 33C212.708 33 212.628 32.9467 212.602 32.84C212.495 32.0133 212.228 31.1733 211.802 30.32C211.375 29.44 210.735 28.6933 209.882 28.08C209.055 27.4667 208.042 27.16 206.842 27.16C205.348 27.16 204.228 27.6 203.482 28.48C202.762 29.3333 202.402 30.3867 202.402 31.64ZM230.365 52.48C227.992 52.48 225.885 51.9333 224.045 50.84C222.232 49.7467 220.819 48.2533 219.805 46.36C218.792 44.4667 218.285 42.36 218.285 40.04C218.285 37.5067 218.885 35.2133 220.085 33.16C221.312 31.1067 222.952 29.4933 225.005 28.32C227.085 27.1467 229.392 26.56 231.925 26.56C234.352 26.56 236.472 27.0933 238.285 28.16C240.099 29.2267 241.499 30.7067 242.485 32.6C243.472 34.4667 243.965 36.5733 243.965 38.92C243.965 41.56 243.339 43.9067 242.085 45.96C240.859 48.0133 239.205 49.6133 237.125 50.76C235.072 51.9067 232.819 52.48 230.365 52.48ZM232.125 51.44C234.019 51.44 235.659 51 237.045 50.12C238.459 49.2133 239.539 47.9467 240.285 46.32C241.032 44.6933 241.405 42.8133 241.405 40.68C241.405 38.2267 240.925 36 239.965 34C239.032 32 237.712 30.4267 236.005 29.28C234.325 28.1067 232.432 27.52 230.325 27.52C228.485 27.52 226.845 27.96 225.405 28.84C223.965 29.72 222.832 30.9867 222.005 32.64C221.205 34.2667 220.805 36.1733 220.805 38.36C220.805 40.7867 221.299 43 222.285 45C223.272 47 224.619 48.5733 226.325 49.72C228.059 50.8667 229.992 51.44 232.125 51.44ZM247.383 52C247.33 52 247.29 51.92 247.263 51.76C247.263 51.6 247.303 51.52 247.383 51.52C248.316 51.52 248.996 51.4533 249.423 51.32C249.876 51.1867 250.183 50.9333 250.343 50.56C250.503 50.16 250.583 49.56 250.583 48.76V30.24C250.583 29.44 250.503 28.8533 250.343 28.48C250.21 28.1067 249.916 27.8533 249.463 27.72C249.036 27.56 248.37 27.48 247.463 27.48C247.383 27.48 247.343 27.4 247.343 27.24C247.343 27.08 247.383 27 247.463 27L249.223 27.04C250.29 27.0933 251.156 27.12 251.823 27.12C252.516 27.12 253.396 27.0933 254.463 27.04L256.383 27C256.436 27 256.463 27.08 256.463 27.24C256.463 27.4 256.436 27.48 256.383 27.48C255.423 27.48 254.716 27.56 254.263 27.72C253.836 27.8533 253.543 28.12 253.383 28.52C253.25 28.8933 253.17 29.48 253.143 30.28V48.6C253.17 49.3733 253.25 49.9467 253.383 50.32C253.543 50.6667 253.823 50.9067 254.223 51.04C254.623 51.1733 255.263 51.24 256.143 51.24H260.543C262.196 51.24 263.463 50.7867 264.343 49.88C265.223 48.9733 265.85 47.6533 266.223 45.92C266.223 45.84 266.29 45.8 266.423 45.8C266.503 45.8 266.57 45.8133 266.623 45.84C266.703 45.8667 266.743 45.9067 266.743 45.96C266.556 47.6933 266.463 49.5067 266.463 51.4C266.463 51.6133 266.41 51.7733 266.303 51.88C266.196 51.96 266.023 52 265.783 52H247.383Z" fill="white"/>
<defs>
<filter id="filter0_f_2_48" x="41.9549" y="28.9276" width="32.4389" height="26.7333" filterUnits="userSpaceOnUse" color-interpolation-filters="sRGB">
<feFlood flood-opacity="0" result="BackgroundImageFix"/>
<feBlend mode="normal" in="SourceGraphic" in2="BackgroundImageFix" result="shape"/>
<feGaussianBlur stdDeviation="1.76638" result="effect1_foregroundBlur_2_48"/>
</filter>
<filter id="filter1_f_2_48" x="38.3039" y="21.4882" width="39.0558" height="35.9869" filterUnits="userSpaceOnUse" color-interpolation-filters="sRGB">
<feFlood flood-opacity="0" result="BackgroundImageFix"/>
<feBlend mode="normal" in="SourceGraphic" in2="BackgroundImageFix" result="shape"/>
<feGaussianBlur stdDeviation="4.1358" result="effect1_foregroundBlur_2_48"/>
</filter>
<linearGradient id="paint0_linear_2_48" x1="51.1577" y1="30.5317" x2="46.0563" y2="18.6657" gradientUnits="userSpaceOnUse">
<stop stop-color="#A56C00"/>
<stop offset="1" stop-color="#A56C00" stop-opacity="0"/>
</linearGradient>
<linearGradient id="paint1_linear_2_48" x1="44.113" y1="43.4449" x2="28.1432" y2="43.4449" gradientUnits="userSpaceOnUse">
<stop stop-color="#A56C00"/>
<stop offset="1" stop-color="#A56C00" stop-opacity="0"/>
</linearGradient>
<linearGradient id="paint2_linear_2_48" x1="46.2675" y1="34.1847" x2="32.8199" y2="25.5078" gradientUnits="userSpaceOnUse">
<stop stop-color="#A56C00"/>
<stop offset="1" stop-color="#A56C00" stop-opacity="0"/>
</linearGradient>
<linearGradient id="paint3_linear_2_48" x1="48.5684" y1="47.5767" x2="39.5251" y2="57.1508" gradientUnits="userSpaceOnUse">
<stop stop-color="#A56C00"/>
<stop offset="1" stop-color="#A56C00" stop-opacity="0"/>
</linearGradient>
<linearGradient id="paint4_linear_2_48" x1="55.0763" y1="50.9819" x2="50.5821" y2="62.0708" gradientUnits="userSpaceOnUse">
<stop stop-color="#A56C00"/>
<stop offset="1" stop-color="#A56C00" stop-opacity="0"/>
</linearGradient>
<linearGradient id="paint5_linear_2_48" x1="62.6145" y1="52.4724" x2="62.6138" y2="59.8391" gradientUnits="userSpaceOnUse">
<stop stop-color="#A56C00"/>
<stop offset="1" stop-color="#A56C00" stop-opacity="0"/>
</linearGradient>
<linearGradient id="paint6_linear_2_48" x1="70.4021" y1="45.8425" x2="83.3167" y2="48.8643" gradientUnits="userSpaceOnUse">
<stop stop-color="#A56C00"/>
<stop offset="1" stop-color="#A56C00" stop-opacity="0"/>
</linearGradient>
<linearGradient id="paint7_linear_2_48" x1="66.4974" y1="52.8299" x2="77.2259" y2="52.8299" gradientUnits="userSpaceOnUse">
<stop stop-color="#A56C00"/>
<stop offset="1" stop-color="#A56C00" stop-opacity="0"/>
</linearGradient>
<linearGradient id="paint8_linear_2_48" x1="69.4202" y1="37.2864" x2="83.243" y2="34.091" gradientUnits="userSpaceOnUse">
<stop stop-color="#A56C00"/>
<stop offset="1" stop-color="#A56C00" stop-opacity="0"/>
</linearGradient>
<linearGradient id="paint9_linear_2_48" x1="65.754" y1="32.0866" x2="73.4427" y2="20.9107" gradientUnits="userSpaceOnUse">
<stop stop-color="#A56C00"/>
<stop offset="1" stop-color="#A56C00" stop-opacity="0"/>
</linearGradient>
<linearGradient id="paint10_linear_2_48" x1="58.6413" y1="28.7516" x2="58.6413" y2="18.4598" gradientUnits="userSpaceOnUse">
<stop stop-color="#A56C00"/>
<stop offset="1" stop-color="#A56C00" stop-opacity="0"/>
</linearGradient>
<linearGradient id="paint11_linear_2_48" x1="58.1054" y1="52.8671" x2="58.1054" y2="29.138" gradientUnits="userSpaceOnUse">
<stop stop-color="#AA8800"/>
<stop offset="1" stop-color="#D56B0D" stop-opacity="0.69912"/>
</linearGradient>
<linearGradient id="paint12_linear_2_48" x1="58.1744" y1="52.5831" x2="58.1744" y2="38.6616" gradientUnits="userSpaceOnUse">
<stop stop-color="#423401"/>
<stop offset="1" stop-opacity="0"/>
</linearGradient>
<linearGradient id="paint13_linear_2_48" x1="57.8318" y1="29.7598" x2="57.8318" y2="43.2322" gradientUnits="userSpaceOnUse">
<stop stop-color="white"/>
<stop offset="1" stop-color="white" stop-opacity="0"/>
</linearGradient>
<clipPath id="clip0_2_48">
<rect width="77.9" height="67" fill="white" transform="translate(19.475 6)"/>
</clipPath>
</defs>
</svg>
